HIERARCHY
ROOT SpineBase
{
  OFFSET 0.000000 0.000000 0.000000
  CHANNELS 6 Xposition Yposition Zposition Zrotation Xrotation Yrotation
  JOINT SpineMid
  {
    OFFSET 0.000000 29.738093 0.000000
    CHANNELS 3 Zrotation Xrotation Yrotation
    JOINT SpineShoulder
    {
      OFFSET 0.183265 22.011346 -0.553673
      CHANNELS 3 Zrotation Xrotation Yrotation
      JOINT Neck
      {
        OFFSET 0.046584 7.279516 -0.477712
        CHANNELS 3 Zrotation Xrotation Yrotation
        JOINT Head
        {
          OFFSET 4.596453 12.343767 0.810700
          CHANNELS 3 Zrotation Xrotation Yrotation
          End Site
          {
            OFFSET 0 0 0
          }
        }
      }
      JOINT ShoulderLeft
      {
        OFFSET -12.310556 -3.682873 -8.477332
        CHANNELS 3 Zrotation Xrotation Yrotation
        JOINT ElbowLeft
        {
          OFFSET -4.207055 -22.844744 -0.578927
          CHANNELS 3 Zrotation Xrotation Yrotation
          JOINT WristLeft
          {
            OFFSET 2.772547 -23.787047 -5.604167
            CHANNELS 3 Zrotation Xrotation Yrotation
            JOINT HandLeft
            {
              OFFSET 0.223978 -5.792571 1.008381
              CHANNELS 3 Zrotation Xrotation Yrotation
              JOINT HandTipLeft
              {
                OFFSET -0.061226 -5.974794 -0.393178
                CHANNELS 3 Zrotation Xrotation Yrotation
                End Site
                {
                  OFFSET 0 0 0
                }
              }
              JOINT ThumbLeft
              {
                OFFSET 3.434776 -0.558163 -0.437513
                CHANNELS 3 Zrotation Xrotation Yrotation
                End Site
                {
                  OFFSET 0 0 0
                }
              }
            }
          }
        }
      }
      JOINT ShoulderRight
      {
        OFFSET 15.688860 -5.286444 4.592053
        CHANNELS 3 Zrotation Xrotation Yrotation
        JOINT ElbowRight
        {
          OFFSET 2.707183 -23.866870 2.939171
          CHANNELS 3 Zrotation Xrotation Yrotation
          JOINT WristRight
          {
            OFFSET 2.308102 -23.001821 0.563216
            CHANNELS 3 Zrotation Xrotation Yrotation
            JOINT HandRight
            {
              OFFSET -0.344745 -5.709708 -1.168086
              CHANNELS 3 Zrotation Xrotation Yrotation
              JOINT HandTipRight
              {
                OFFSET 0.877651 -5.782410 1.387295
                CHANNELS 3 Zrotation Xrotation Yrotation
                End Site
                {
                  OFFSET 0 0 0
                }
              }
              JOINT ThumbRight
              {
                OFFSET 1.942873 0.147094 -2.469542
                CHANNELS 3 Zrotation Xrotation Yrotation
                End Site
                {
                  OFFSET 0 0 0
                }
              }
            }
          }
        }
      }
    }
  }
  JOINT HipLeft
  {
    OFFSET -4.977667 1.537218 -5.670459
    CHANNELS 3 Zrotation Xrotation Yrotation
    JOINT KneeLeft
    {
      OFFSET -6.990663 -31.028669 10.945696
      CHANNELS 3 Zrotation Xrotation Yrotation
      JOINT AnkleLeft
      {
        OFFSET -3.914997 -33.294893 3.855898
        CHANNELS 3 Zrotation Xrotation Yrotation
        JOINT FootLeft
        {
          OFFSET 3.186309 -5.159010 -1.768830
          CHANNELS 3 Zrotation Xrotation Yrotation
          End Site
          {
            OFFSET 0 0 0
          }
        }
      }
    }
  }
  JOINT HipRight
  {
    OFFSET 4.562508 -0.410785 -1.059458
    CHANNELS 3 Zrotation Xrotation Yrotation
    JOINT KneeRight
    {
      OFFSET -7.419148 -31.500676 9.075746
      CHANNELS 3 Zrotation Xrotation Yrotation
      JOINT AnkleRight
      {
        OFFSET -0.826821 -27.589883 5.925441
        CHANNELS 3 Zrotation Xrotation Yrotation
        JOINT FootRight
        {
          OFFSET -2.759882 -6.360462 -5.015157
          CHANNELS 3 Zrotation Xrotation Yrotation
          End Site
          {
            OFFSET 0 0 0
          }
        }
      }
    }
  }
}
MOTION
Frames: 8
Frame Time: 0.033333
19.999402 68.966895 350.375170 -0.000000 0.000000 -25.795618 0.000000 0.000000 25.795618 -0.000000 0.000000 0.000000 -0.000000 0.000000 0.000000 0.000000 0.000000 0.000000 -0.000000 0.000000 0.000000 -0.000000 0.000000 0.000000 -0.000000 0.000000 0.000000 -0.000000 0.000000 0.000000 0.000000 0.000000 0.000000 0.000000 0.000000 0.000000 -0.000000 0.000000 0.000000 -0.000000 0.000000 0.000000 -0.000000 0.000000 0.000000 -0.000000 0.000000 0.000000 0.000000 0.000000 0.000000 0.000000 0.000000 0.000000 0.000000 0.000000 25.795618 -0.000000 0.000000 0.000000 -0.000000 0.000000 0.000000 0.000000 0.000000 0.000000 0.000000 0.000000 25.795618 -0.000000 0.000000 0.000000 -0.000000 0.000000 0.000000 0.000000 0.000000 0.000000
20.136939 69.028953 350.418567 0.153387 0.016083 -25.722982 -0.131207 -0.081062 25.722868 -0.000000 0.000000 0.000000 -0.000000 0.000000 0.000000 0.000000 0.000000 0.000000 -0.000000 0.000000 0.000000 -1.657998 0.285477 0.428522 2.248808 1.531585 -0.254242 0.947540 -0.835501 -0.256770 0.000000 0.000000 0.000000 0.000000 0.000000 0.000000 -0.000000 0.000000 0.000000 -0.670484 1.445772 0.137248 -2.236643 -2.031744 0.420548 1.232215 -0.518287 -1.208211 0.000000 0.000000 0.000000 0.000000 0.000000 0.000000 -0.131207 -0.081062 25.722868 0.737559 0.376289 0.038794 0.200397 17.247571 9.868753 0.000000 0.000000 0.000000 0.987425 -0.128310 26.134030 -2.789572 1.371605 -0.788704 6.370260 5.898699 -6.114988 0.000000 0.000000 0.000000
20.242663 69.075882 350.481439 0.259094 -0.004260 -25.550426 -0.235594 -0.107905 25.550214 -0.000000 0.000000 0.000000 -0.000000 0.000000 0.000000 0.000000 0.000000 0.000000 -0.000000 0.000000 0.000000 -3.253520 0.522126 0.844286 4.239753 2.731747 -0.537673 1.764113 -1.351803 -0.410187 0.000000 0.000000 0.000000 0.000000 0.000000 0.000000 -0.000000 0.000000 0.000000 -1.273199 2.639717 0.263529 -4.520868 -3.809129 0.721233 2.685191 -0.676873 -2.307959 0.000000 0.000000 0.000000 0.000000 0.000000 0.000000 -0.938488 -1.245110 25.309114 2.445082 1.434436 0.271857 -1.465937 27.208054 16.118498 0.000000 0.000000 0.000000 1.780102 -0.186336 26.292053 -4.990639 2.511770 -1.365827 12.155376 10.535028 -11.635471 0.000000 0.000000 0.000000
20.316572 69.107683 350.563786 0.316837 -0.061133 -25.277736 -0.312604 -0.080013 25.277687 -0.000000 0.000000 0.000000 -0.000000 0.000000 0.000000 0.000000 0.000000 0.000000 -0.000000 0.000000 0.000000 -4.743499 0.701457 1.233137 5.949949 3.669224 -0.828661 2.426896 -1.593771 -0.492387 0.000000 0.000000 0.000000 0.000000 0.000000 0.000000 -0.000000 0.000000 0.000000 -1.809317 3.589334 0.373554 -6.767430 -5.314871 0.924451 4.305251 -0.498487 -3.263008 0.000000 0.000000 0.000000 0.000000 0.000000 0.000000 -1.334908 -1.451545 24.914374 3.262690 1.799298 0.388477 -3.212624 32.398843 19.918746 0.000000 0.000000 0.000000 2.376380 -0.180051 26.265695 -6.610553 3.396948 -1.764333 17.018077 13.976541 -16.321045 0.000000 0.000000 0.000000
20.358668 69.124355 350.665609 0.326442 -0.154558 -24.905084 -0.361172 0.002713 24.905533 -0.000000 0.000000 0.000000 -0.000000 0.000000 0.000000 0.000000 0.000000 0.000000 -0.811005 0.019963 0.016995 -5.271077 0.798041 1.561131 7.347655 4.401200 -1.110693 2.918929 -1.596176 -0.525013 0.000000 0.000000 0.000000 0.000000 0.000000 0.000000 -0.000000 0.000000 0.000000 -2.280033 4.301702 0.463009 -8.880208 -6.532029 1.058775 6.024985 -0.007315 -4.040024 0.000000 0.000000 0.000000 0.000000 0.000000 0.000000 -1.677484 -1.373995 24.423231 3.804339 1.923076 0.505060 -4.490158 34.713947 21.966738 0.000000 0.000000 0.000000 2.776243 -0.112608 26.052963 -7.656106 4.012402 -2.009878 20.811803 16.464565 -20.117739 0.000000 0.000000 0.000000
20.368949 69.125899 350.786907 0.287837 -0.284478 -24.433050 -0.379729 0.139940 24.434228 -0.000000 0.000000 0.000000 -0.000000 0.000000 0.000000 0.000000 0.000000 0.000000 -1.019043 -0.050555 0.034629 -6.204969 0.915494 1.840441 8.396255 4.974384 -1.370818 3.227356 -1.385414 -0.521071 0.000000 0.000000 0.000000 0.000000 0.000000 0.000000 -0.000000 0.000000 0.000000 -2.686544 4.782955 0.528427 -10.759617 -7.445399 1.156323 7.769452 0.775279 -4.609772 0.000000 0.000000 0.000000 0.000000 0.000000 0.000000 -1.958703 -1.009362 23.838934 4.064923 1.801472 0.625512 -5.180634 35.039402 22.620564 0.000000 0.000000 0.000000 2.980939 0.015768 25.653662 -8.132449 4.349931 -2.119681 23.521159 18.252666 -23.083376 0.000000 0.000000 0.000000
20.346818 69.089472 350.916021 0.199479 -0.439181 -23.834918 -0.359945 0.321110 23.836691 -0.000000 0.000000 0.000000 -0.000000 0.000000 0.000000 0.000000 0.000000 0.000000 -1.274950 -0.131841 0.055013 -6.779453 1.086112 2.052069 8.877613 5.263350 -1.601080 2.779411 -1.059970 -0.458269 0.000000 0.000000 0.000000 0.000000 0.000000 0.000000 -0.000000 0.000000 0.000000 -3.018109 4.639159 0.516003 -12.122571 -7.200563 1.400047 8.472314 2.197264 -4.888252 0.000000 0.000000 0.000000 0.000000 0.000000 0.000000 -1.896880 0.213230 23.215595 2.985625 0.830513 0.654183 -4.872684 31.492385 20.868976 0.000000 0.000000 0.000000 2.474858 0.131745 24.863211 -6.681177 3.892665 -1.800854 22.121323 18.569820 -22.996654 0.000000 0.000000 0.000000
20.253208 69.043287 351.014340 0.020448 -0.576376 -23.154141 -0.245442 0.521907 23.155361 -0.000000 0.000000 0.000000 -0.000000 0.000000 0.000000 0.000000 0.000000 0.000000 -1.508284 -0.266742 0.083639 -6.637449 1.109296 2.040637 8.114000 4.876315 -1.755430 2.205410 0.216276 -0.282039 0.000000 0.000000 0.000000 0.000000 0.000000 0.000000 -0.844517 -0.099440 -0.116100 -2.347494 4.555581 0.616191 -13.961364 -5.732868 1.795421 10.952861 1.034883 -5.032788 0.000000 0.000000 0.000000 0.000000 0.000000 0.000000 -2.567856 0.286431 22.230830 4.308707 1.249457 0.966134 -3.113035 20.410272 13.496481 0.000000 0.000000 0.000000 2.882539 0.313374 24.275036 -7.084061 4.284219 -1.912976 27.170623 21.742339 -28.967664 0.000000 0.000000 0.000000
